<svg width="97" height="75" viewBox="0 0 97 75" fill="none" xmlns="http://www.w3.org/2000/svg">
<path d="M61.3636 23.7216H52.5568C52.036 21.1885 51.1245 18.9631 49.8225 17.0455C48.544 15.1278 46.9815 13.518 45.135 12.2159C43.312 10.8902 41.2879 9.89579 39.0625 9.23295C36.8371 8.57007 34.5171 8.23863 32.1023 8.23863C27.6989 8.23863 23.7098 9.35132 20.135 11.5767C16.5838 13.8021 13.7547 17.081 11.6477 21.4134C9.56439 25.7457 8.52273 31.0606 8.52273 37.358C8.52273 43.6553 9.56439 48.9702 11.6477 53.3026C13.7547 57.635 16.5838 60.9138 20.135 63.1392C23.7098 65.3646 27.6989 66.4773 32.1023 66.4773C34.5171 66.4773 36.8371 66.1458 39.0625 65.483C41.2879 64.8201 43.312 63.8376 45.135 62.5355C46.9815 61.2098 48.544 59.5881 49.8225 57.6705C51.1245 55.7292 52.036 53.5038 52.5568 50.9943H61.3636C60.7008 54.7112 59.4934 58.0374 57.7415 60.973C55.9896 63.9086 53.8116 66.4063 51.2074 68.4659C48.6032 70.5019 45.6795 72.0526 42.4361 73.1179C39.2164 74.1832 35.7718 74.7159 32.1023 74.7159C25.8996 74.7159 20.3835 73.2008 15.554 70.1705C10.7244 67.1402 6.92472 62.8314 4.15483 57.2443C1.38494 51.6572 0 45.0284 0 37.358C0 29.6875 1.38494 23.0587 4.15483 17.4716C6.92472 11.8845 10.7244 7.57576 15.554 4.54545C20.3835 1.51515 25.8996 0 32.1023 0C35.7718 0 39.2164 0.532671 42.4361 1.59801C45.6795 2.66335 48.6032 4.22585 51.2074 6.28551C53.8116 8.32149 55.9896 10.8073 57.7415 13.7429C59.4934 16.6548 60.7008 19.9811 61.3636 23.7216ZM69.5153 45.6818V40.9943H96.1062V45.6818H85.3676V73.7216H80.3391V45.6818H69.5153Z" fill="#081C3A"/>
</svg>
