<svg width="504" height="121" viewBox="0 0 504 121"  xmlns="http://www.w3.org/2000/svg">
<path d="M222.986 77.7033C222.986 85.7134 218.491 98.394 199.048 98.394H170.046V27.0232H196.516C202.566 27.0232 216.448 28.5069 216.448 45.4864C216.448 52.4689 213.315 58.0003 208.806 60.4138C213.933 61.0204 222.986 64.8745 222.986 77.7033ZM204.755 76.475C204.755 70.6572 199.557 68.917 192.049 68.917H187.887V84.0329H193.449C199.479 84.0329 204.755 82.2927 204.755 76.475ZM187.888 55.1224H191.407C193.697 55.1224 199.877 54.5838 199.877 48.2265C199.877 41.8681 193.571 41.3296 191.407 41.3296H187.888V55.1224Z" />
<path d="M280.212 49.9833V81.2723C280.212 99.258 261.724 100.246 255.077 100.246C248.431 100.246 229.943 99.258 229.943 81.2723V49.9833H246.793V78.3378C246.793 80.8183 247.743 86.2622 255.077 86.2622C262.411 86.2622 263.361 80.8183 263.361 78.3378V49.9833H280.212Z" />
<path d="M288.755 31.409C288.755 26.0875 292.936 21.7722 298.092 21.7722C303.25 21.7722 307.43 26.0875 307.43 31.409C307.43 36.7315 303.25 41.0468 298.092 41.0468C292.936 41.0468 288.755 36.7315 288.755 31.409Z" />
<path d="M289.62 98.487V50.0206H306.472V98.487H289.62Z" />
<path d="M316.628 98.5098V22.1841H333.479V98.5098H316.628Z" />
<path d="M379.667 22.1841H396.519V98.5098H379.667V94.3086C375.623 98.0392 370.424 100.284 364.753 100.284C351.862 100.284 341.413 88.6989 341.413 74.4079C341.413 60.1168 351.862 48.5317 364.753 48.5317C370.424 48.5317 375.623 50.7776 379.667 54.506V22.1841ZM379.667 74.4079C379.667 68.2576 375.299 63.2707 369.401 63.2707C363.503 63.2707 358.722 68.2576 358.722 74.4079C358.722 80.5592 363.503 85.546 369.401 85.546C375.299 85.546 379.667 80.5581 379.667 74.4079Z" />
<path d="M440.413 80.8751H456.521C456.521 97.835 438.52 100.273 431.076 100.273C423.631 100.273 404.659 95.6244 404.659 74.5013C404.659 53.3783 421.044 48.2329 430.898 48.2329C446.123 48.2329 453.25 56.0843 455.619 67.2255C456.284 70.3187 456.581 73.6589 456.581 77.1475H421.501C421.501 85.0876 425.654 88.2003 431.631 88.2003C437.607 88.2003 440.413 84.8404 440.413 80.8751ZM421.905 67.2255H440.789L440.68 67.1565C440.68 63.5876 437.984 59.2856 431.353 59.2856C424.732 59.2856 421.906 64.0242 421.905 67.2255Z" />
<path d="M465.036 98.4713V50.0039H481.886V98.4713H465.036Z" />
<path d="M485.315 59.62C485.315 54.2987 489.496 49.9833 494.654 49.9833C499.81 49.9833 503.991 54.2987 503.991 59.62C503.991 64.9426 499.81 69.257 494.654 69.257C489.496 69.257 485.315 64.9426 485.315 59.62Z" />
<path d="M0 15C0 12.7908 1.79086 11 4 11H26C28.2091 11 30 12.7908 30 15V37C30 39.2091 28.2091 41 26 41H4C1.79086 41 0 39.2091 0 37V15Z" />
<path d="M45.7709 9.84993C46.6695 7.83178 49.0339 6.92415 51.052 7.82269L71.15 16.7709C73.1682 17.6694 74.0758 20.0339 73.1773 22.052L64.2291 42.15C63.3305 44.1682 60.9661 45.0758 58.9479 44.1773L38.8499 35.2291C36.8318 34.3305 35.9242 31.9661 36.8227 29.9479L45.7709 9.84993Z" />
<path d="M98.7028 1.35867C100.292 -0.175929 102.824 -0.131728 104.359 1.45739L119.641 17.2829C121.176 18.872 121.132 21.4043 119.543 22.9389L103.717 38.2213C102.128 39.7559 99.5957 39.7117 98.0611 38.1226L82.7786 22.2971C81.244 20.708 81.2882 18.1757 82.8774 16.6411L98.7028 1.35867Z" />
<path d="M0 55C0 52.7908 1.79086 51 4 51H26C28.2091 51 30 52.7908 30 55V77C30 79.2091 28.2091 81 26 81H4C1.79086 81 0 79.2091 0 77V55Z" />
<path d="M40 55C40 52.7908 41.7909 51 44 51H66C68.2091 51 70 52.7908 70 55V77C70 79.2091 68.2091 81 66 81H44C41.7909 81 40 79.2091 40 77V55Z" />
<path d="M81.5629 61.7354C80.6997 59.7019 81.6485 57.3536 83.682 56.4904L103.933 47.8944C105.967 47.0312 108.315 47.9799 109.178 50.0135L117.774 70.2646C118.637 72.2981 117.689 74.6463 115.655 75.5095L95.404 84.1056C93.3704 84.9688 91.0222 84.02 90.159 81.9865L81.5629 61.7354Z" />
<path d="M0 95C0 92.7908 1.79086 91 4 91H26C28.2091 91 30 92.7908 30 95V117C30 119.209 28.2091 121 26 121H4C1.79086 121 0 119.209 0 117V95Z" />
<path d="M40 95C40 92.7908 41.7909 91 44 91H66C68.2091 91 70 92.7908 70 95V117C70 119.209 68.2091 121 66 121H44C41.7909 121 40 119.209 40 117V95Z" />
<path d="M80 95C80 92.7908 81.7909 91 84 91H106C108.209 91 110 92.7908 110 95V117C110 119.209 108.209 121 106 121H84C81.7909 121 80 119.209 80 117V95Z" />
</svg>